<?xml version="1.0" encoding="UTF-8" ?>
<!DOCTYPE svg PUBLIC "-//W3C//DTD SVG 1.1//EN" "http://www.w3.org/Graphics/SVG/1.1/DTD/svg11.dtd">
<svg width="1600pt" height="512pt" viewBox="0 0 1600 512" version="1.1" xmlns="http://www.w3.org/2000/svg">
<g id="#d32b2cff">
<path fill="#d32b2c" opacity="1.00" d=" M 829.56 181.58 C 839.33 171.54 853.44 167.29 867.02 165.83 C 882.23 164.43 897.56 167.85 911.64 173.43 C 918.56 176.39 925.32 180.08 930.92 185.17 C 932.38 188.00 931.50 191.40 930.11 194.08 C 925.92 201.78 920.57 208.78 914.70 215.26 C 903.02 205.59 888.28 199.38 873.04 198.93 C 867.28 198.69 861.16 199.92 856.61 203.63 C 853.10 206.39 851.70 211.53 853.34 215.67 C 855.10 219.23 858.83 221.17 862.36 222.60 C 880.58 230.08 900.51 233.35 917.59 243.51 C 928.63 250.08 935.38 262.37 936.89 274.92 C 939.14 291.59 932.51 309.73 918.76 319.78 C 909.00 326.93 897.04 330.48 885.13 331.81 C 856.77 334.69 827.32 325.21 806.20 306.00 C 812.63 296.18 821.08 287.92 827.78 278.31 C 840.02 289.04 855.43 297.19 872.03 297.35 C 880.45 297.69 890.30 298.15 896.73 291.65 C 901.83 286.50 898.72 277.32 892.77 274.24 C 875.32 264.96 855.15 262.60 837.66 253.42 C 827.49 248.08 819.15 238.72 816.33 227.44 C 811.86 211.22 817.83 193.29 829.56 181.58 Z" />
<path fill="#d32b2c" opacity="1.00" d=" M 124.40 170.90 C 136.49 170.10 148.70 168.69 160.77 170.61 C 162.05 190.51 160.91 210.45 161.29 230.37 C 173.01 215.73 185.44 201.68 197.21 187.08 C 201.43 182.00 205.04 176.38 209.89 171.85 C 210.70 170.87 211.99 170.89 213.14 170.80 C 226.83 170.09 240.54 170.33 254.22 170.91 C 243.26 185.62 231.11 199.37 219.74 213.76 C 213.60 221.43 207.21 228.92 200.40 236.01 C 214.79 259.88 230.85 282.69 246.07 306.03 C 250.72 313.35 256.89 319.85 259.62 328.24 C 246.74 328.52 233.84 328.71 220.96 328.13 C 216.26 327.79 213.68 323.29 211.15 319.90 C 199.15 302.39 188.01 284.31 175.69 267.01 C 170.86 272.31 164.77 276.89 161.78 283.57 C 160.34 298.03 161.77 312.59 160.85 327.09 C 148.89 329.59 136.64 328.08 124.59 327.17 C 123.97 322.79 123.32 318.41 123.36 313.98 C 123.57 270.32 123.37 226.66 123.34 183.00 C 123.32 178.94 123.94 174.92 124.40 170.90 Z" />
<path fill="#d32b2c" opacity="1.00" d=" M 256.87 170.65 C 269.50 170.72 282.25 168.58 294.79 170.99 C 295.69 203.33 294.55 235.68 295.02 268.03 C 295.01 277.51 300.19 286.91 308.43 291.69 C 313.42 294.60 319.34 295.23 325.01 295.44 C 333.04 295.62 341.59 293.30 347.20 287.25 C 352.70 281.68 354.89 273.74 355.42 266.11 C 356.69 234.32 354.88 202.46 356.91 170.69 C 369.41 170.26 381.93 170.07 394.41 170.89 C 394.34 203.94 395.21 237.02 393.51 270.04 C 393.13 286.74 385.39 302.88 373.41 314.37 C 359.52 326.76 340.34 331.89 322.00 331.16 C 308.38 331.17 294.69 327.36 283.41 319.65 C 269.71 310.51 260.36 295.35 257.85 279.12 C 256.42 270.81 256.79 262.35 256.73 253.96 C 256.68 226.19 256.56 198.42 256.87 170.65 Z" />
<path fill="#d32b2c" opacity="1.00" d=" M 409.32 171.05 C 429.19 169.88 449.10 170.59 468.99 170.40 C 478.29 170.45 487.62 169.95 496.89 170.88 C 511.71 172.26 525.66 180.85 533.49 193.52 C 540.28 203.94 541.88 216.77 541.25 228.95 C 540.64 238.56 537.88 248.27 532.06 256.05 C 526.47 263.45 518.66 268.74 510.71 273.29 C 521.19 288.54 531.04 304.21 541.32 319.60 C 543.12 322.15 543.01 325.41 543.30 328.39 C 530.10 328.25 516.84 329.11 503.72 327.32 C 491.50 312.12 483.95 293.71 471.09 278.99 C 463.11 278.23 455.10 278.86 447.11 278.80 C 446.04 295.01 447.62 311.31 445.69 327.47 C 433.49 328.93 421.25 327.32 409.04 327.09 C 409.06 275.08 408.65 223.06 409.32 171.05 M 447.06 203.86 C 447.06 217.96 447.10 232.05 446.83 246.15 C 457.89 246.34 468.97 246.73 480.02 246.00 C 486.50 245.47 493.63 244.28 498.31 239.33 C 504.19 233.43 504.74 224.15 502.69 216.49 C 500.06 209.91 493.35 205.59 486.47 204.65 C 473.40 202.98 460.20 203.56 447.06 203.86 Z" />
<path fill="#d32b2c" opacity="1.00" d=" M 531.44 170.96 C 545.36 170.33 559.30 170.21 573.24 170.56 C 585.37 190.85 596.09 211.93 608.34 232.15 C 620.42 212.03 630.83 190.97 642.47 170.59 C 656.18 169.02 669.96 170.54 683.69 170.95 C 665.68 203.08 646.40 234.49 628.46 266.65 C 627.62 268.65 627.24 270.80 627.04 272.95 C 626.21 291.09 628.19 309.40 625.43 327.43 C 613.44 328.62 601.20 329.26 589.32 326.75 C 588.32 308.50 589.21 290.22 588.95 271.96 C 588.85 268.01 586.53 264.70 584.57 261.44 C 572.93 241.77 561.60 221.91 549.73 202.38 C 543.50 191.98 536.70 181.89 531.44 170.96 Z" />
<path fill="#d32b2c" opacity="1.00" d=" M 684.71 170.80 C 711.81 169.91 738.94 170.65 766.06 170.36 C 778.38 170.53 790.79 168.39 803.04 170.70 C 803.56 181.81 803.83 192.96 802.87 204.06 C 776.90 203.72 750.92 203.16 724.95 203.76 C 723.07 203.43 721.45 205.17 721.67 207.01 C 721.10 215.22 721.59 223.46 721.39 231.68 C 745.09 232.22 768.86 230.20 792.50 232.73 C 792.40 243.43 793.82 254.26 791.49 264.83 C 768.12 264.88 744.75 264.55 721.39 265.04 C 721.40 274.97 721.46 284.91 721.38 294.84 C 748.81 294.79 776.24 294.67 803.67 294.86 C 805.40 305.78 804.93 316.94 803.32 327.85 C 774.57 328.95 745.79 328.28 717.03 328.35 C 706.31 328.24 695.48 329.27 684.90 327.01 C 683.93 317.36 684.28 307.66 684.27 297.98 C 684.43 255.59 684.19 213.19 684.71 170.80 Z" />
</g>
<g id="#24a8abff">
<path fill="#24a8ab" opacity="1.00" d=" M 1026.49 209.56 C 1040.68 196.91 1060.04 189.98 1079.06 191.31 C 1097.16 192.96 1115.07 201.10 1127.05 214.98 C 1128.62 216.76 1130.40 219.05 1129.45 221.57 C 1128.12 224.95 1124.86 226.96 1122.20 229.21 C 1115.83 233.93 1111.15 240.42 1105.44 245.83 C 1098.72 242.04 1093.86 235.54 1086.67 232.53 C 1075.73 228.02 1062.12 230.25 1053.63 238.63 C 1044.68 248.42 1042.78 263.75 1048.17 275.73 C 1053.20 287.36 1066.72 293.42 1078.90 292.57 C 1090.56 291.57 1100.12 283.99 1108.38 276.32 C 1115.95 284.20 1124.04 291.68 1130.47 300.57 C 1132.03 302.45 1130.60 304.86 1129.30 306.42 C 1122.32 315.05 1112.88 321.51 1102.61 325.59 C 1082.60 333.45 1059.24 332.68 1039.99 323.00 C 1026.20 316.10 1014.98 304.09 1009.26 289.75 C 998.51 262.86 1005.04 229.38 1026.49 209.56 Z" />
<path fill="#24a8ab" opacity="1.00" d=" M 1190.53 191.69 C 1210.14 189.00 1230.88 194.25 1246.50 206.52 C 1258.98 216.43 1267.00 231.30 1269.79 246.88 C 1273.57 267.32 1268.95 289.57 1255.93 305.96 C 1245.01 319.21 1228.76 327.43 1211.94 330.07 C 1190.55 333.41 1166.94 328.23 1150.94 313.08 C 1142.20 305.05 1135.14 294.94 1131.76 283.48 C 1126.49 264.98 1128.30 244.39 1137.44 227.38 C 1147.67 207.46 1168.70 194.73 1190.53 191.69 M 1194.54 229.64 C 1187.33 231.29 1180.16 234.72 1175.75 240.88 C 1167.93 251.33 1166.92 266.42 1173.20 277.85 C 1182.87 295.40 1211.00 298.26 1223.74 282.62 C 1231.99 272.56 1233.17 257.73 1227.87 246.03 C 1222.17 233.87 1207.60 227.02 1194.54 229.64 Z" />
<path fill="#24a8ab" opacity="1.00" d=" M 1314.46 206.02 C 1323.67 199.68 1333.74 194.02 1344.89 192.10 C 1351.73 190.84 1358.79 191.59 1365.48 193.37 C 1375.23 196.16 1383.39 202.73 1390.03 210.20 C 1403.10 197.86 1421.23 188.87 1439.58 192.26 C 1458.49 194.21 1474.56 209.67 1478.56 228.05 C 1480.67 238.89 1480.64 250.00 1480.51 261.00 C 1480.23 271.32 1480.39 281.64 1480.33 291.96 C 1480.51 303.56 1481.35 315.33 1478.76 326.75 C 1467.63 328.26 1456.23 329.49 1445.09 327.47 C 1442.95 327.06 1440.87 325.30 1440.81 323.02 C 1439.80 300.02 1440.99 277.00 1440.35 253.99 C 1439.95 247.56 1439.75 240.10 1434.57 235.48 C 1424.22 224.49 1402.31 229.95 1399.13 244.93 C 1396.53 262.53 1398.14 280.36 1397.67 298.07 C 1397.37 307.44 1398.64 316.98 1396.31 326.19 C 1385.47 330.19 1373.70 328.59 1362.54 327.15 C 1359.01 326.89 1358.49 322.77 1358.57 319.99 C 1358.52 297.64 1358.60 275.28 1358.53 252.93 C 1358.35 246.06 1357.12 238.12 1351.12 233.83 C 1343.03 228.40 1331.42 228.76 1323.66 234.65 C 1319.86 237.53 1317.63 242.19 1317.56 246.94 C 1316.36 270.28 1317.37 293.65 1316.96 317.00 C 1316.91 320.41 1316.01 323.72 1315.13 326.99 C 1305.18 328.56 1295.03 329.24 1285.00 328.07 C 1281.60 327.79 1277.76 325.58 1277.36 321.91 C 1276.93 283.92 1277.51 245.91 1277.32 207.92 C 1277.40 203.63 1278.04 199.36 1279.13 195.21 C 1290.18 194.35 1301.29 194.22 1312.37 194.74 C 1313.06 198.50 1313.72 202.27 1314.46 206.02 Z" />
<path fill="#24a8ab" opacity="1.00" d=" M 970.14 282.14 C 977.00 280.79 984.31 282.89 989.74 287.21 C 1000.70 295.75 1001.69 314.08 991.85 323.85 C 982.32 332.59 965.76 332.84 956.66 323.30 C 947.54 313.26 948.82 295.96 958.98 287.08 C 962.07 284.30 966.09 282.85 970.14 282.14 Z" />
</g>
</svg>
